HIERARCHY
ROOT hip
{
  OFFSET 0 0 0
  CHANNELS 6 Xposition Yposition Zposition Zrotation Yrotation Xrotation
  JOINT abdomen
  {
    OFFSET 0 20.6881 -0.73152
    CHANNELS 3 Zrotation Xrotation Yrotation
    JOINT chest
    {
      OFFSET 0 11.7043 -0.48768
      CHANNELS 3 Zrotation Xrotation Yrotation
      JOINT neck
      {
        OFFSET 0 22.1894 -2.19456
        CHANNELS 3 Zrotation Xrotation Yrotation
        JOINT head
        {
          OFFSET -0.24384 7.07133 1.2192
          CHANNELS 3 Zrotation Xrotation Yrotation
          JOINT leftEye
          {
            OFFSET 4.14528 8.04674 8.04672
            CHANNELS 3 Zrotation Xrotation Yrotation
            End Site
            {
              OFFSET 1 0 0
            }
          }
          JOINT rightEye
          {
            OFFSET -3.6576 8.04674 8.04672
            CHANNELS 3 Zrotation Xrotation Yrotation
            End Site
            {
              OFFSET 1 0 0
            }
          }
        }
      }
      JOINT rCollar
      {
        OFFSET -2.68224 19.2634 -4.8768
        CHANNELS 3 Zrotation Xrotation Yrotation
        JOINT rShldr
        {
          OFFSET -8.77824 -1.95073 1.46304
          CHANNELS 3 Zrotation Xrotation Yrotation
          JOINT rForeArm
          {
            OFFSET -28.1742 -1.7115 0.48768
            CHANNELS 3 Zrotation Xrotation Yrotation
            JOINT rHand
            {
              OFFSET -22.5879 0.773209 7.07136
              CHANNELS 3 Zrotation Xrotation Yrotation
              JOINT rThumb1
              {
                OFFSET -1.2192 -0.487915 3.41376
                CHANNELS 3 Zrotation Xrotation Yrotation
                JOINT rThumb2
                {
                  OFFSET -3.37035 -0.52449 3.41376
                  CHANNELS 3 Zrotation Xrotation Yrotation
                  End Site
                  {
                    OFFSET -1.78271 -1.18214 1.43049
                  }
                }
              }
              JOINT rIndex1
              {
                OFFSET -7.75947 0.938293 5.60832
                CHANNELS 3 Zrotation Xrotation Yrotation
                JOINT rIndex2
                {
                  OFFSET -2.54057 -0.884171 1.56538
                  CHANNELS 3 Zrotation Xrotation Yrotation
                  End Site
                  {
                    OFFSET -1.62519 -0.234802 1.16502
                  }
                }
              }
              JOINT rMid1
              {
                OFFSET -8.24714 1.18213 3.41376
                CHANNELS 3 Zrotation Xrotation Yrotation
                JOINT rMid2
                {
                  OFFSET -3.10165 -0.590103 1.0647
                  CHANNELS 3 Zrotation Xrotation Yrotation
                  End Site
                  {
                    OFFSET -2.48547 -0.328903 0.83742
                  }
                }
              }
              JOINT rRing1
              {
                OFFSET -8.82822 0.546677 1.51678
                CHANNELS 3 Zrotation Xrotation Yrotation
                JOINT rRing2
                {
                  OFFSET -2.60934 -0.819778 -0.0198488
                  CHANNELS 3 Zrotation Xrotation Yrotation
                  End Site
                  {
                    OFFSET -2.33842 -0.294052 0.168128
                  }
                }
              }
              JOINT rPinky1
              {
                OFFSET -8.27202 -0.0477905 -0.4584
                CHANNELS 3 Zrotation Xrotation Yrotation
                JOINT rPinky2
                {
                  OFFSET -1.82734 -0.647385 -0.700984
                  CHANNELS 3 Zrotation Xrotation Yrotation
                  End Site
                  {
                    OFFSET -1.69225 -0.51767 -0.607171
                  }
                }
              }
            }
          }
        }
      }
      JOINT lCollar
      {
        OFFSET 2.68224 19.2634 -4.8768
        CHANNELS 3 Zrotation Xrotation Yrotation
        JOINT lShldr
        {
          OFFSET 8.77824 -1.95073 1.46304
          CHANNELS 3 Zrotation Xrotation Yrotation
          JOINT lForeArm
          {
            OFFSET 28.1742 -1.7115 0.48768
            CHANNELS 3 Zrotation Xrotation Yrotation
            JOINT lHand
            {
              OFFSET 22.5879 0.773209 7.07136
              CHANNELS 3 Zrotation Xrotation Yrotation
              JOINT lThumb1
              {
                OFFSET 1.2192 -0.487915 3.41376
                CHANNELS 3 Zrotation Xrotation Yrotation
                JOINT lThumb2
                {
                  OFFSET 3.37035 -0.52449 3.41376
                  CHANNELS 3 Zrotation Xrotation Yrotation
                  End Site
                  {
                    OFFSET 1.78271 -1.18214 1.43049
                  }
                }
              }
              JOINT lIndex1
              {
                OFFSET 7.75947 0.938293 5.60832
                CHANNELS 3 Zrotation Xrotation Yrotation
                JOINT lIndex2
                {
                  OFFSET 2.54057 -0.884171 1.56538
                  CHANNELS 3 Zrotation Xrotation Yrotation
                  End Site
                  {
                    OFFSET 1.62519 -0.234802 1.16502
                  }
                }
              }
              JOINT lMid1
              {
                OFFSET 8.24714 1.18213 3.41376
                CHANNELS 3 Zrotation Xrotation Yrotation
                JOINT lMid2
                {
                  OFFSET 3.10165 -0.590103 1.0647
                  CHANNELS 3 Zrotation Xrotation Yrotation
                  End Site
                  {
                    OFFSET 2.48547 -0.328903 0.83742
                  }
                }
              }
              JOINT lRing1
              {
                OFFSET 8.82822 0.546677 1.51678
                CHANNELS 3 Zrotation Xrotation Yrotation
                JOINT lRing2
                {
                  OFFSET 2.60934 -0.819778 -0.0198488
                  CHANNELS 3 Zrotation Xrotation Yrotation
                  End Site
                  {
                    OFFSET 2.33842 -0.294052 0.168128
                  }
                }
              }
              JOINT lPinky1
              {
                OFFSET 8.27202 -0.0477905 -0.4584
                CHANNELS 3 Zrotation Xrotation Yrotation
                JOINT lPinky2
                {
                  OFFSET 1.82734 -0.647385 -0.700984
                  CHANNELS 3 Zrotation Xrotation Yrotation
                  End Site
                  {
                    OFFSET 1.69225 -0.51767 -0.607171
                  }
                }
              }
            }
          }
        }
      }
    }
  }
  JOINT rButtock
  {
    OFFSET -8.77824 4.35084 1.2192
    CHANNELS 3 Zrotation Xrotation Yrotation
    JOINT rThigh
    {
      OFFSET 0 -1.70687 -2.19456
      CHANNELS 3 Zrotation Xrotation Yrotation
      JOINT rShin
      {
        OFFSET 0 -36.8199 0.73152
        CHANNELS 3 Zrotation Xrotation Yrotation
        JOINT rFoot
        {
          OFFSET 0.73152 -45.1104 -5.12064
          CHANNELS 3 Zrotation Xrotation Yrotation
          End Site
          {
            OFFSET -1.1221 -3.69964 12.103
          }
        }
      }
    }
  }
  JOINT lButtock
  {
    OFFSET 8.77824 4.35084 1.2192
    CHANNELS 3 Zrotation Xrotation Yrotation
    JOINT lThigh
    {
      OFFSET 0 -1.70687 -2.19456
      CHANNELS 3 Zrotation Xrotation Yrotation
      JOINT lShin
      {
        OFFSET 0 -36.8199 0.73152
        CHANNELS 3 Zrotation Xrotation Yrotation
        JOINT lFoot
        {
          OFFSET -0.73152 -45.1104 -5.12064
          CHANNELS 3 Zrotation Xrotation Yrotation
          End Site
          {
            OFFSET 1.1221 -3.69964 12.103
          }
        }
      }
    }
  }
}
MOTION
Frames:	4
Frame Time:	0.03333
2.98588 69.4911 -111.14300000000001 362.954 30.8149 356.698 -14.0156 11.872500000000002 6.34346 3.13794 -9.716219999999998 1.69122 -10.5927 14.817600000000002 -12.5741 15.180600000000002 -21.3751 -21.6285 -0.0 0.0 0.0 -0.0 0.0 0.0 8.28669e-14 -2.4334199999999997e-14 5.85452e-14 -0.173323 -30.8064 62.482000000000006 -28.3036 -32.9213 71.9376 -0.33718699999999996 16.2943 2.35449 -6.86403e-10 3.21147e-10 2.03697e-11 -1.1854599999999998e-09 5.45849e-10 4.3944e-11 -6.86393e-10 3.21156e-10 2.03582e-11 7.730909999999999 5.47488 0.417314 -6.864050000000001e-10 3.21148e-10 2.0366300000000003e-11 2.90554 0.965183 0.102902 -6.863910000000001e-10 3.21152e-10 2.03664e-11 10.278600000000003 0.731801 0.0259123 -6.86407e-10 3.21152e-10 2.0376e-11 2.22167 -0.733487 -0.20892000000000002 8.27789e-14 -2.43192e-14 5.83744e-14 -111.529 49.92869999999999 48.1645 27.6789 -41.8533 -87.31219999999999 9.08501 -61.76250000000002 15.151 5.218189999999999e-11 -3.3922099999999995e-10 1.44177e-10 8.305180000000002e-11 -5.99341e-10 2.50233e-10 5.21764e-11 -3.39211e-10 1.4418500000000003e-10 -7.730909999999999 5.47488 -0.417314 5.2181400000000014e-11 -3.39212e-10 1.44169e-10 -2.90554 0.965183 -0.102902 5.21744e-11 -3.392179999999999e-10 1.44175e-10 -10.278600000000003 0.731801 -0.0259123 5.2185599999999996e-11 -3.39213e-10 1.44169e-10 -2.22167 -0.733487 0.20892000000000002 -2.03217e-16 0.0 -3.88251e-19 -40.4669 -49.43899999999999 -35.1279 -1.09783 60.1532 1.47424 -0.312152 4.37803 9.613410000000002 2.03217e-16 0.0 3.88251e-19 9.77145 -0.376037 3.51995 0.376418 52.232200000000006 -2.41839 16.1067 -15.101900000000002 36.1478
2.93779 69.4684 -110.382 363.939 30.2265 357.736 -14.9856 11.2647 7.01105 3.25116 -9.65589 1.8773099999999998 -10.3873 14.8031 -12.542499999999999 14.8039 -21.5391 -21.6187 -0.0 0.0 0.0 -0.0 0.0 0.0 5.567580000000001e-14 1.2403e-13 1.718e-13 0.281926 -30.788399999999996 62.7349 -28.2835 -32.722 71.6196 -0.336579 16.2818 2.35257 -1.62002e-09 6.98307e-10 2.98896e-10 -2.79416e-09 1.18423e-09 5.357559999999999e-10 -1.62e-09 6.98311e-10 2.98883e-10 7.730909999999999 5.47488 0.417314 -1.62002e-09 6.98304e-10 2.98893e-10 2.90554 0.965183 0.102902 -1.62e-09 6.9831e-10 2.98889e-10 10.278600000000003 0.731801 0.0259123 -1.62002e-09 6.98306e-10 2.98905e-10 2.22167 -0.733487 -0.20892000000000002 5.5647200000000013e-14 1.24053e-13 1.717e-13 -111.193 50.0861 49.1176 27.710300000000004 -41.72999999999999 -87.0819 11.1142 -64.8482 17.4166 -9.73666e-10 -1.60333e-09 3.38249e-10 -1.68898e-09 -2.6303e-09 5.36157e-10 -9.73672e-10 -1.60332e-09 3.38262e-10 -7.730909999999999 5.47488 -0.417314 -9.73669e-10 -1.60333e-09 3.38246e-10 -2.90554 0.965183 -0.102902 -9.736709999999997e-10 -1.60334e-09 3.3825e-10 -10.278600000000003 0.731801 -0.0259123 -9.736609999999998e-10 -1.60333e-09 3.38249e-10 -2.22167 -0.733487 0.20892000000000002 -2.03217e-16 0.0 -3.88251e-19 -42.1829 -49.9998 -36.8479 -1.15636 61.15039999999999 1.5759200000000002 -0.12144500000000001 3.57094 10.2853 2.03217e-16 0.0 3.88251e-19 9.113999999999999 0.146065 4.02727 0.334925 51.0964 -2.39674 15.9103 -14.978100000000001 36.1717
2.89607 69.4129 -109.734 364.409 29.675800000000002 358.477 -15.1385 10.843500000000002 7.57997 3.23418 -9.56953 2.04124 -10.2744 14.9157 -12.5171 14.603100000000003 -21.6528 -21.6069 -0.0 0.0 0.0 -0.0 0.0 0.0 -1.17162e-14 2.03872e-13 -6.75184e-14 0.6495070000000001 -30.8699 62.914699999999996 -28.273700000000005 -32.6341 71.4828 -0.339256 16.3443 2.36211 1.2090899999999998e-09 1.09632e-10 -1.16819e-09 2.07576e-09 2.10055e-10 -2.03366e-09 1.2091e-09 1.0963299999999999e-10 -1.1682e-09 7.730909999999999 5.47488 0.417314 1.2090899999999998e-09 1.09628e-10 -1.1682e-09 2.90554 0.965183 0.102902 1.2091e-09 1.0963299999999999e-10 -1.1682e-09 10.278600000000003 0.731801 0.0259123 1.20908e-09 1.0962899999999999e-10 -1.16819e-09 2.22167 -0.733487 -0.20892000000000002 -1.17443e-14 2.0388399999999997e-13 -6.76582e-14 -111.265 50.19540000000001 49.7666 27.7495 -41.5732 -86.7886 12.2602 -66.2931 18.6737 -8.21276e-10 -2.19755e-10 -9.376650000000001e-11 -1.40581e-09 -2.01981e-10 -2.02509e-10 -8.212790000000001e-10 -2.1974600000000003e-10 -9.37564e-11 -7.730909999999999 5.47488 -0.417314 -8.21274e-10 -2.1974699999999997e-10 -9.37677e-11 -2.90554 0.965183 -0.102902 -8.21276e-10 -2.1976400000000003e-10 -9.37571e-11 -10.278600000000003 0.731801 -0.0259123 -8.21268e-10 -2.1976000000000002e-10 -9.3756e-11 -2.22167 -0.733487 0.20892000000000002 -2.03217e-16 0.0 -3.88251e-19 -42.9634 -50.41839999999999 -37.8095 -1.20189 61.8838 1.6534 0.07245420000000001 2.73862 10.7328 2.03217e-16 0.0 3.88251e-19 8.90577 0.768072 4.55692 0.296856 49.9752 -2.37939 16.021699999999996 -15.1121 36.4306
2.84492 69.391 -109.13999999999999 364.30600000000004 29.5035 358.755 -14.9769 10.5998 7.998679999999999 3.13151 -9.48158 2.15733 -10.169899999999998 15.041199999999998 -12.53 14.5249 -21.639700000000005 -21.661000000000005 -0.0 0.0 0.0 -0.0 0.0 0.0 -5.28572e-14 2.11904e-13 -2.8297e-13 0.9645790000000001 -30.967800000000008 62.95029999999999 -28.272099999999995 -32.6199 71.4602 -0.3415579999999999 16.397600000000004 2.37026 3.97144e-09 -4.84119e-10 -2.57821e-09 6.83138e-09 -7.7416e-10 -4.50333e-09 3.97145e-09 -4.84121e-10 -2.57821e-09 7.730909999999999 5.47488 0.417314 3.97145e-09 -4.84121e-10 -2.57821e-09 2.90554 0.965183 0.102902 3.971459999999999e-09 -4.84119e-10 -2.57822e-09 10.278600000000003 0.731801 0.0259123 3.97144e-09 -4.84122e-10 -2.57821e-09 2.22167 -0.733487 -0.20892000000000002 -5.28997e-14 2.11904e-13 -2.8316899999999997e-13 -111.455 50.1417 50.23060000000001 27.7753 -41.465 -86.58929999999998 12.7415 -66.8603 19.1997 -4.09347e-10 1.25868e-09 -4.97715e-10 -6.784790000000001e-10 2.34484e-09 -8.809860000000001e-10 -4.09348e-10 1.25868e-09 -4.97709e-10 -7.730909999999999 5.47488 -0.417314 -4.09341e-10 1.2586900000000001e-09 -4.97715e-10 -2.90554 0.965183 -0.102902 -4.09344e-10 1.25867e-09 -4.97701e-10 -10.278600000000003 0.731801 -0.0259123 -4.09338e-10 1.25867e-09 -4.977e-10 -2.22167 -0.733487 0.20892000000000002 -2.03217e-16 0.0 -3.88251e-19 -43.2329 -50.6955 -38.2653 -1.23884 62.44930000000001 1.71386 0.24027600000000002 1.9608800000000002 10.9338 2.03217e-16 0.0 3.88251e-19 8.89445 1.49682 4.91231 0.259111 48.7879 -2.35859 16.1817 -15.313399999999998 36.6944
